<?xml version="1.0" encoding="UTF-8" standalone="no"?>
<svg width="462" height="120" xmlns="http://www.w3.org/2000/svg">
  <style>
    .logo-green { fill: #A4FF00; }
    .logo-purple { fill: #5E2E8E; }
  </style>
  
  <!-- Circle with 'e' logo -->
  <g>
    <circle cx="62" cy="60" r="40" class="logo-green" stroke="#5E2E8E" stroke-width="4"/>
    <path d="M76 60c0 10-7 15-16 15-12 0-19-9-19-24s8-24 20-24c7 0 12 3 14 9l-6 2c-1-4-4-6-9-6-7 0-12 6-12 19 0 12 5 18 12 18 6 0 10-3 10-9H59v-5h17v5z" class="logo-purple"/>
  </g>

  <!-- "edge" text -->
  <g>
    <path d="M130 45c0-4 3-7 8-7 4 0 8 2 10 5l8-7c-3-5-10-9-18-9-12 0-20 7-20 18 0 21 31 12 31 23 0 4-4 7-10 7-6 0-10-3-12-7l-8 7c4 6 11 10 20 10 13 0 22-7 22-18 0-22-31-12-31-24z" class="logo-purple"/>
    <path d="M193 32h-12v54h37v-12h-25V32z" class="logo-purple"/>
    <path d="M254 79c6 0 10-3 12-6v5h12V45c0-13-8-19-20-19-9 0-16 3-22 10l7 8c4-5 8-7 14-7 6 0 9 3 9 9v2c-3-1-7-2-11-2-13 0-21 6-21 17 0 10 7 16 20 16zm2-12c-5 0-9-2-9-6 0-4 3-6 9-6 3 0 6 1 10 2v4c0 4-4 6-10 6z" class="logo-purple"/>
  </g>

  <!-- "tech" text -->
  <g>
    <path d="M326 33h-12v-15h-12v15h-10v11h10v26c0 10 5 16 16 16 4 0 8-1 11-3l-3-10c-2 1-4 1-6 1-4 0-6-2-6-7V44h12V33z" class="logo-green"/>
    <path d="M362 79c6 0 10-3 12-6v5h12V45c0-13-8-19-20-19-9 0-16 3-22 10l7 8c4-5 8-7 14-7 6 0 9 3 9 9v2c-3-1-7-2-11-2-13 0-21 6-21 17 0 10 7 16 20 16zm2-12c-5 0-9-2-9-6 0-4 3-6 9-6 3 0 6 1 10 2v4c0 4-4 6-10 6z" class="logo-green"/>
    <path d="M422 79c6 0 12-3 15-8v7h12V30h-12v25c-3-4-8-7-15-7-13 0-22 10-22 23v2c0 13 9 23 22 23zm3-12c-7 0-11-5-11-12v-2c0-7 4-12 11-12s12 5 12 12v2c0 7-5 12-12 12z" class="logo-green"/>
    <path d="M488 79c6 0 12-3 15-8v7h12V30h-12v25c-3-4-8-7-15-7-13 0-22 10-22 23v2c0 13 9 23 22 23zm3-12c-7 0-11-5-11-12v-2c0-7 4-12 11-12s12 5 12 12v2c0 7-5 12-12 12z" class="logo-green"/>
  </g>

  <!-- Subtitle -->
  <text x="125" y="100" font-family="Arial" font-size="14" font-weight="bold" class="logo-purple">INDUSTRIAL SOLUTIONS TECHNIK, INC.</text>
</svg> 